<svg xmlns="http://www.w3.org/2000/svg" xmlns:xlink="http://www.w3.org/1999/xlink" width="307.6199951171875" height="52.40081787109375" viewBox="0 0 307.6199951171875 52.40081787109375" fill="none"><g opacity="1"  transform="translate(0 0)  rotate(0)"><path id="文本 1" fill-rule="evenodd" style="fill:#FFFEFA" opacity="1" d="M7.24,51.47h-7.24v-51.33h7.24zM15.26,25.8c0,0.15 0.14,0.29 0.14,0.29l20.35,25.38h-8.86l-16.2,-19.86c-0.32,-0.29 -0.71,-0.74 -0.71,-0.74h-0.03c-1.93,-2.22 -1.93,-5.07 -1.93,-5.07c0,-2.84 1.93,-5.06 1.93,-5.06h0.03c0.39,-0.45 0.71,-0.74 0.71,-0.74l16.2,-19.86h8.86l-20.35,25.38c-0.14,0.14 -0.14,0.28 -0.14,0.28zM47.14,51.47h-7.24v-36.63h7.24zM76.54,14.84v7.24h-1.16c-7.99,0 -11.04,3.2 -11.04,3.2c-2.39,2.46 -2.39,7.87 -2.39,7.87v18.32h-7.25v-18.32c0,-8.29 4.43,-12.9 4.43,-12.9c5.21,-5.41 16.25,-5.41 16.25,-5.41zM105.68,42.57v8.2c-2.6,1.16 -5.59,1.51 -5.59,1.51c-5.06,0.6 -9.6,-1.23 -9.6,-1.23c-4.81,-1.9 -7.59,-6.09 -7.59,-6.09c-3.1,-4.57 -3.1,-11.81 -3.1,-11.81c0,-8.96 5.07,-14.06 5.07,-14.06c4.99,-4.96 13.25,-4.96 13.25,-4.96c8.26,0 13.29,5 13.29,5c5.03,5.02 5.03,13.32 5.03,13.32v19.02h-7.24v-19.02c0,-5.27 -2.96,-8.23 -2.96,-8.23c-2.85,-2.84 -8.12,-2.84 -8.12,-2.84c-5.24,0 -8.12,2.84 -8.12,2.84c-2.95,2.96 -2.95,8.93 -2.95,8.93c0,5.94 2.95,8.9 2.95,8.9c2.88,2.88 8.12,2.88 8.12,2.88c4.78,0 7.56,-2.36 7.56,-2.36zM152.58,20.21c0.38,-0.45 0.77,-0.91 0.77,-0.91c4.5,-5.17 11.99,-5.17 11.99,-5.17c7.52,0 12.02,5.17 12.02,5.17c4.36,5.03 4.36,13.15 4.36,13.15v19.02h-7.24v-19.02c0,-5.45 -2.6,-8.4 -2.6,-8.4c-2.32,-2.67 -6.54,-2.67 -6.54,-2.67c-4.22,0 -6.54,2.67 -6.54,2.67c-2.57,2.95 -2.57,8.4 -2.57,8.4v19.02h-7.27v-19.02c0,-5.45 -2.57,-8.4 -2.57,-8.4c-2.32,-2.67 -6.54,-2.67 -6.54,-2.67c-4.22,0 -6.54,2.67 -6.54,2.67c-2.6,2.95 -2.6,8.4 -2.6,8.4v19.02h-7.24v-19.02c0,-8.12 4.36,-13.15 4.36,-13.15c4.5,-5.17 12.02,-5.17 12.02,-5.17c7.49,0 11.99,5.17 11.99,5.17c0.39,0.46 0.74,0.91 0.74,0.91zM196.52,51.47h-7.24v-36.63h7.24zM234.35,23.91c7.07,3.58 7.07,12.13 7.07,12.13c0,7.27 -4.08,11.35 -4.08,11.35c-4.08,4.08 -11.36,4.08 -11.36,4.08h-11.11v-7.28h11.11c4.26,0 6.23,-1.97 6.23,-1.97c1.93,-1.93 1.93,-6.18 1.93,-6.18c0,-4.65 -1.93,-6.54 -1.93,-6.54c-1.97,-1.97 -6.23,-1.97 -6.23,-1.97h-11.11v-6.58h9.64c3.2,0 4.99,-1.75 4.99,-1.75c1.69,-1.69 1.69,-5.24 1.69,-5.24c0,-3.2 -1.69,-4.92 -1.69,-4.92c-1.79,-1.76 -4.99,-1.76 -4.99,-1.76h-10.55c-1.26,0 -1.93,0.67 -1.93,0.67c-0.67,0.66 -0.67,1.58 -0.67,1.58v41.94h-7.28v-41.94c0,-3.94 2.78,-6.75 2.78,-6.75c2.81,-2.78 7.1,-2.78 7.1,-2.78h10.55c6.22,0 10.12,3.9 10.12,3.9c3.83,3.83 3.83,10.06 3.83,10.06c0,6.22 -4.11,9.95 -4.11,9.95zM255.48,24.22c-2.95,2.96 -2.95,8.93 -2.95,8.93c0,5.94 2.95,8.9 2.95,8.9c2.88,2.88 8.12,2.88 8.12,2.88c5.28,0 8.12,-2.88 8.12,-2.88c2.96,-2.96 2.96,-8.9 2.96,-8.9c0,-5.97 -2.96,-8.93 -2.96,-8.93c-2.84,-2.84 -8.12,-2.84 -8.12,-2.84c-5.24,0 -8.12,2.84 -8.12,2.84zM250.35,19.09c4.99,-4.96 13.25,-4.96 13.25,-4.96c8.26,0 13.26,4.96 13.26,4.96c5.06,5.1 5.06,14.06 5.06,14.06c0,8.97 -5.06,14.03 -5.06,14.03c-5,4.99 -13.26,4.99 -13.26,4.99c-8.26,0 -13.25,-4.99 -13.25,-4.99c-5.06,-5.06 -5.06,-14.03 -5.06,-14.03c0,-8.96 5.06,-14.06 5.06,-14.06zM295.95,22.08v11.07c0,5.28 2.95,8.19 2.95,8.19c2.85,2.89 8.08,2.89 8.08,2.89h0.64v7.24h-0.64c-8.26,-0.04 -13.21,-5.03 -13.21,-5.03c-5.07,-5.06 -5.07,-13.29 -5.07,-13.29v-33.01h7.25v14.7h11.42v7.24z"></path><path id="矩形 1" fill-rule="evenodd" style="fill:#FFC71C" opacity="1" d="M38.5503 4.94975L43.5 9.8995L48.4497 4.94975L43.5 0L38.5503 4.94975Z"></path><path id="文本 1" fill-rule="evenodd" style="fill:#0DA7FE" opacity="1" d="M196.51 2L189.27 2L189.27 9.24L196.51 9.24L196.51 2Z"></path></g></svg>