<svg xmlns="http://www.w3.org/2000/svg" xmlns:xlink="http://www.w3.org/1999/xlink" width="500" height="500" viewBox="0 0 500 500" fill="none"><g opacity="1"  transform="translate(0 0)  rotate(0)"><mask fill="white"><use transform="translate(0 0)  rotate(0)" xlink:href="#path_0"></use></mask><g mask="url(#bg-mask-0)" ><g opacity="1"  transform="translate(44 13)  rotate(0)"><g opacity="1"  transform="translate(0 0)  rotate(0)"><path fill-rule="evenodd" style="fill:#05BBFF" opacity="1" d="M363.47 89.6498C358.77 86.9298 352.9 90.3198 352.9 95.7498L352.9 148.79C352.9 151.31 354.25 153.63 356.42 154.89L402.34 181.42C407.039 184.12 412.88 180.74 412.9 175.32L412.9 122.27C412.9 119.76 411.549 117.43 409.37 116.17L363.47 89.6498Z"></path><path fill-rule="evenodd" style="fill:#0DA7FE" opacity="1" d="M412.909 256.267C412.909 253.747 411.569 251.407 409.389 250.147L363.469 223.627C358.769 220.907 352.899 224.297 352.899 229.727L352.899 318.047C352.899 320.567 351.559 322.907 349.379 324.167L272.959 368.317C268.269 371.037 268.269 377.817 272.959 380.537L318.879 407.057C321.059 408.317 323.739 408.317 325.929 407.057L409.389 358.837C411.569 357.577 412.909 355.237 412.909 352.727L412.909 256.267Z"></path><path fill-rule="evenodd" style="fill:#00C9FF" opacity="1" d="M119.461 49.17C117.281 50.43 115.941 52.76 115.941 55.28L115.941 108.33C115.941 113.76 121.811 117.16 126.511 114.45L202.931 70.29C205.121 69.03 207.801 69.03 209.981 70.29L286.38 114.42C291.081 117.14 296.951 113.75 296.951 108.32L296.951 55.28C296.951 52.76 295.611 50.43 293.431 49.17L209.971 0.94C207.781 -0.31 205.111 -0.31 202.921 0.94L119.461 49.17Z"></path><path fill-rule="evenodd" style="fill:#1A86FD" opacity="1" d="M0 352.72C0 355.24 1.34 357.58 3.52 358.84L202.94 474.06C205.11 475.31 207.8 475.31 209.97 474.06L255.89 447.53C260.58 444.81 260.58 438.03 255.89 435.32L63.53 324.16C61.35 322.91 60.01 320.57 60.01 318.05L60 95.7498C60 90.3198 54.12 86.9298 49.43 89.6498L3.52 116.17C1.35 117.43 0 119.76 0 122.27L0 352.72Z"></path></g><g opacity="1"  transform="translate(63 95)  rotate(0)"><mask id="mask-1" fill="white"><path d="M52.2574 95.2151L52.2564 190.579C52.2554 193.443 53.7817 196.08 56.258 197.511L138.772 245.192C141.249 246.623 144.294 246.627 146.771 245.194L229.287 197.512C231.764 196.079 233.283 193.446 233.284 190.582L233.285 95.2182C233.286 92.3545 231.765 89.7083 229.288 88.2774L146.774 40.5964C144.298 39.1655 141.247 39.17 138.77 40.6027L56.2548 88.2854C53.7775 89.7182 52.2585 92.3515 52.2574 95.2151Z"  ></path></mask><g mask="url(#mask-1)"></g><g mask="url(#mask-1)"><g opacity="1"  transform="translate(7.00128173828125 12.13641357421875)  rotate(0)"><path fill-rule="evenodd" style="fill:#FFD215" opacity="1" d="M135.769 130.759C135.77 172.604 135.769 193.519 135.771 235.364C171.979 214.443 226.284 183.063 226.284 183.063L226.282 78.4581C226.282 78.4581 171.977 109.838 135.769 130.759Z"></path><path fill-rule="evenodd" style="fill:#FFF03C" opacity="1" d="M45.2558 78.4547C81.4651 99.3782 99.5612 109.835 135.771 130.759C171.978 109.838 226.283 78.4577 226.283 78.4577L135.769 26.1537C135.769 26.1537 81.4637 57.5336 45.2558 78.4547Z"></path><path fill-rule="evenodd" style="fill:#FFBA1A" opacity="1" d="M135.77 130.76C99.5609 109.837 81.4649 99.3798 45.2556 78.4562C45.257 120.301 45.2573 183.061 45.2573 183.061L135.772 235.365C135.771 193.52 135.772 172.605 135.77 130.76ZM45.2573 183.061C45.2573 183.061 99.5627 214.441 135.772 235.365L45.2573 183.061Z"></path></g></g></g></g></g></g><defs><rect x="0" y="0" width="500" height="500" /></defs></svg>